<?xml version="1.0" encoding="utf-8"?>
<svg viewBox="0 0 403.15313720703125 306.3063049316406" xmlns="http://www.w3.org/2000/svg" xmlns:bx="https://boxy-svg.com">
  <path d="M 146 254 m -70.363 0 a 70.363 70.363 0 1 0 140.726 0 a 70.363 70.363 0 1 0 -140.726 0 Z M 146 254 m -49.138 0 a 49.138 49.138 0 0 1 98.276 0 a 49.138 49.138 0 0 1 -98.276 0 Z" style="fill: rgb(154, 154, 154);" transform="matrix(-0.768221, 0.640185, -0.640184, -0.768222, 370.475051, 315.558489)" bx:shape="ring 146 254 49.138 49.138 70.363 70.363 1@97db64bf"/>
  <path d="M 198 265 m -68.694 0 a 68.694 68.694 0 1 0 137.388 0 a 68.694 68.694 0 1 0 -137.388 0 Z M 198 265 m -47.364 0 a 47.364 47.364 0 0 1 94.728 0 a 47.364 47.364 0 0 1 -94.728 0 Z" style="fill: rgb(154, 154, 154);" transform="matrix(-0.983607, 0.180328, -0.180328, -0.983607, 524.05438, 412.922391)" bx:shape="ring 198 265 47.364 47.364 68.694 68.694 1@48be2945"/>
  <path d="M 235 237 m -30.612 0 a 30.612 31.752 0 1 0 61.224 0 a 30.612 31.752 0 1 0 -61.224 0 Z M 235 237 m -18.369 0 a 18.369 19.053 0 0 1 36.738 0 a 18.369 19.053 0 0 1 -36.738 0 Z" style="fill: rgb(154, 154, 154);" transform="matrix(-0.857494, -0.514494, -0.514497, 0.857493, 535.007911, -25.614364)" bx:shape="ring 235 237 18.369 19.053 30.612 31.752 1@dba7bd61"/>
  <path d="M 308.767 298.85 A 39.825 39.825 0 1 1 262.453 261.717 L 269 301 Z" style="fill: rgb(154, 154, 154);" transform="matrix(1.126126, 0, 0, 1.126126, -126.108101, -230.918915)" bx:shape="pie 269 301 0 39.825 86.906 350.538 1@11a2338a"/>
  <path d="M 227 275 A 25.962 25.962 0 0 1 252 256.038 L 252 282 Z" style="fill: rgb(154, 154, 154);" transform="matrix(1.126126, 0, 0, 1.126126, -146.108093, -196.918915)" bx:shape="pie 252 282 0 25.962 285.642 360 1@df86d44e"/>
  <path style="fill: rgb(154, 154, 154);" transform="matrix(-1.126126, 0, 0, -1.126126, 483.126099, 584.396423)" d="M 263.287 337 L 268.713 337 L 269.912 344.865 A 14.667 14.667 0 0 1 273.229 346.239 L 279.638 341.525 L 283.475 345.362 L 278.761 351.771 A 14.667 14.667 0 0 1 280.135 355.088 L 288 356.287 L 288 361.713 L 280.135 362.912 A 14.667 14.667 0 0 1 278.761 366.229 L 283.475 372.638 L 279.638 376.475 L 273.229 371.761 A 14.667 14.667 0 0 1 269.912 373.135 L 268.713 381 L 263.287 381 L 262.088 373.135 A 14.667 14.667 0 0 1 258.771 371.761 L 252.362 376.475 L 248.525 372.638 L 253.239 366.229 A 14.667 14.667 0 0 1 251.865 362.912 L 244 361.713 L 244 356.287 L 251.865 355.088 A 14.667 14.667 0 0 1 253.239 351.771 L 248.525 345.362 L 252.362 341.525 L 258.771 346.239 A 14.667 14.667 0 0 1 262.088 344.865 Z M 266 351.667 A 7.333 7.333 0 0 0 266 366.333 A 7.333 7.333 0 0 0 266 351.667" bx:shape="cog 266 359 7.333 14.667 22 0.375 8 1@b5209652"/>
  <path style="fill: rgb(154, 154, 154);" transform="matrix(-2.047501, 0, 0, -2.149877, 640.374207, 985.454468)" d="M 263.287 337 L 268.713 337 L 269.912 344.865 A 14.667 14.667 0 0 1 273.229 346.239 L 279.638 341.525 L 283.475 345.362 L 278.761 351.771 A 14.667 14.667 0 0 1 280.135 355.088 L 288 356.287 L 288 361.713 L 280.135 362.912 A 14.667 14.667 0 0 1 278.761 366.229 L 283.475 372.638 L 279.638 376.475 L 273.229 371.761 A 14.667 14.667 0 0 1 269.912 373.135 L 268.713 381 L 263.287 381 L 262.088 373.135 A 14.667 14.667 0 0 1 258.771 371.761 L 252.362 376.475 L 248.525 372.638 L 253.239 366.229 A 14.667 14.667 0 0 1 251.865 362.912 L 244 361.713 L 244 356.287 L 251.865 355.088 A 14.667 14.667 0 0 1 253.239 351.771 L 248.525 345.362 L 252.362 341.525 L 258.771 346.239 A 14.667 14.667 0 0 1 262.088 344.865 Z M 266 351.667 A 7.333 7.333 0 0 0 266 366.333 A 7.333 7.333 0 0 0 266 351.667" bx:shape="cog 266 359 7.333 14.667 22 0.375 8 1@b5209652"/>
  <path style="fill: rgb(154, 154, 154);" transform="matrix(-2.021908, 0, 0, -2.098689, 819.34552, 941.650269)" d="M 263.287 337 L 268.713 337 L 269.912 344.865 A 14.667 14.667 0 0 1 273.229 346.239 L 279.638 341.525 L 283.475 345.362 L 278.761 351.771 A 14.667 14.667 0 0 1 280.135 355.088 L 288 356.287 L 288 361.713 L 280.135 362.912 A 14.667 14.667 0 0 1 278.761 366.229 L 283.475 372.638 L 279.638 376.475 L 273.229 371.761 A 14.667 14.667 0 0 1 269.912 373.135 L 268.713 381 L 263.287 381 L 262.088 373.135 A 14.667 14.667 0 0 1 258.771 371.761 L 252.362 376.475 L 248.525 372.638 L 253.239 366.229 A 14.667 14.667 0 0 1 251.865 362.912 L 244 361.713 L 244 356.287 L 251.865 355.088 A 14.667 14.667 0 0 1 253.239 351.771 L 248.525 345.362 L 252.362 341.525 L 258.771 346.239 A 14.667 14.667 0 0 1 262.088 344.865 Z M 266 351.667 A 7.333 7.333 0 0 0 266 366.333 A 7.333 7.333 0 0 0 266 351.667" bx:shape="cog 266 359 7.333 14.667 22 0.375 8 1@b5209652"/>
  <path d="M 146 254 m -67.228 0 a 67.228 68.245 0 1 0 134.456 0 a 67.228 68.245 0 1 0 -134.456 0 Z M 146 254 m -46.947 0 a 46.947 47.659 0 0 1 93.894 0 a 46.947 47.659 0 0 1 -93.894 0 Z" style="fill: rgb(27, 139, 13);" transform="matrix(-0.743693, 0.668521, -0.675001, -0.737869, 380.970305, 299.870973)" bx:shape="ring 146 254 46.947 47.659 67.228 68.245 1@524d3d9d"/>
  <path d="M 198 265 m -66.121 0 a 66.121 66.135 0 1 0 132.242 0 a 66.121 66.135 0 1 0 -132.242 0 Z M 198 265 m -45.589 0 a 45.589 45.599 0 0 1 91.178 0 a 45.589 45.599 0 0 1 -91.178 0 Z" style="fill: rgb(27, 139, 13);" transform="matrix(-0.977085, 0.21285, -0.229848, -0.973382, 539.388469, 399.950078)" bx:shape="ring 198 265 45.589 45.599 66.121 66.135 1@f7df108f"/>
  <path d="M 235 237 m -29.722 0 a 29.722 30.304 0 1 0 59.444 0 a 29.722 30.304 0 1 0 -59.444 0 Z M 235 237 m -17.835 0 a 17.835 18.184 0 0 1 35.67 0 a 17.835 18.184 0 0 1 -35.67 0 Z" style="fill: rgb(27, 139, 13);" transform="matrix(-0.877673, -0.479258, -0.477032, 0.878889, 535.431611, -41.121173)" bx:shape="ring 235 237 17.835 18.184 29.722 30.304 1@1c9c4231"/>
  <path d="M 308.767 298.85 A 39.825 39.825 0 1 1 262.453 261.717 L 269 301 Z" style="fill: rgb(27, 139, 13);" transform="matrix(1.086697, -0.036637, 0.054119, 1.079612, -134.516663, -205.195786)" bx:shape="pie 269 301 0 39.825 86.906 350.538 1@11a2338a"/>
  <path d="M 227 275 A 25.962 25.962 0 0 1 252 256.038 L 252 282 Z" style="fill: rgb(27, 139, 13);" transform="matrix(1.086697, -0.036637, 0.054119, 1.079612, -152.182465, -171.949463)" bx:shape="pie 252 282 0 25.962 285.642 360 1@df86d44e"/>
  <path style="fill: rgb(27, 139, 13);" transform="matrix(-1.086697, 0.036637, -0.054119, -1.079612, 497.568726, 555.623291)" d="M 263.287 337 L 268.713 337 L 269.912 344.865 A 14.667 14.667 0 0 1 273.229 346.239 L 279.638 341.525 L 283.475 345.362 L 278.761 351.771 A 14.667 14.667 0 0 1 280.135 355.088 L 288 356.287 L 288 361.713 L 280.135 362.912 A 14.667 14.667 0 0 1 278.761 366.229 L 283.475 372.638 L 279.638 376.475 L 273.229 371.761 A 14.667 14.667 0 0 1 269.912 373.135 L 268.713 381 L 263.287 381 L 262.088 373.135 A 14.667 14.667 0 0 1 258.771 371.761 L 252.362 376.475 L 248.525 372.638 L 253.239 366.229 A 14.667 14.667 0 0 1 251.865 362.912 L 244 361.713 L 244 356.287 L 251.865 355.088 A 14.667 14.667 0 0 1 253.239 351.771 L 248.525 345.362 L 252.362 341.525 L 258.771 346.239 A 14.667 14.667 0 0 1 262.088 344.865 Z M 266 351.667 A 7.333 7.333 0 0 0 266 366.333 A 7.333 7.333 0 0 0 266 351.667" bx:shape="cog 266 359 7.333 14.667 22 0.375 8 1@b5209652"/>
  <path style="fill: rgb(27, 139, 13);" transform="matrix(-1.975814, 0.06661, -0.103318, -2.061079, 663.585144, 932.000183)" d="M 263.287 337 L 268.713 337 L 269.912 344.865 A 14.667 14.667 0 0 1 273.229 346.239 L 279.638 341.525 L 283.475 345.362 L 278.761 351.771 A 14.667 14.667 0 0 1 280.135 355.088 L 288 356.287 L 288 361.713 L 280.135 362.912 A 14.667 14.667 0 0 1 278.761 366.229 L 283.475 372.638 L 279.638 376.475 L 273.229 371.761 A 14.667 14.667 0 0 1 269.912 373.135 L 268.713 381 L 263.287 381 L 262.088 373.135 A 14.667 14.667 0 0 1 258.771 371.761 L 252.362 376.475 L 248.525 372.638 L 253.239 366.229 A 14.667 14.667 0 0 1 251.865 362.912 L 244 361.713 L 244 356.287 L 251.865 355.088 A 14.667 14.667 0 0 1 253.239 351.771 L 248.525 345.362 L 252.362 341.525 L 258.771 346.239 A 14.667 14.667 0 0 1 262.088 344.865 Z M 266 351.667 A 7.333 7.333 0 0 0 266 366.333 A 7.333 7.333 0 0 0 266 351.667" bx:shape="cog 266 359 7.333 14.667 22 0.375 8 1@b5209652"/>
  <path style="fill: rgb(27, 139, 13);" transform="matrix(-1.951116, 0.065779, -0.100857, -2.012004, 840.185181, 889.1828)" d="M 263.287 337 L 268.713 337 L 269.912 344.865 A 14.667 14.667 0 0 1 273.229 346.239 L 279.638 341.525 L 283.475 345.362 L 278.761 351.771 A 14.667 14.667 0 0 1 280.135 355.088 L 288 356.287 L 288 361.713 L 280.135 362.912 A 14.667 14.667 0 0 1 278.761 366.229 L 283.475 372.638 L 279.638 376.475 L 273.229 371.761 A 14.667 14.667 0 0 1 269.912 373.135 L 268.713 381 L 263.287 381 L 262.088 373.135 A 14.667 14.667 0 0 1 258.771 371.761 L 252.362 376.475 L 248.525 372.638 L 253.239 366.229 A 14.667 14.667 0 0 1 251.865 362.912 L 244 361.713 L 244 356.287 L 251.865 355.088 A 14.667 14.667 0 0 1 253.239 351.771 L 248.525 345.362 L 252.362 341.525 L 258.771 346.239 A 14.667 14.667 0 0 1 262.088 344.865 Z M 266 351.667 A 7.333 7.333 0 0 0 266 366.333 A 7.333 7.333 0 0 0 266 351.667" bx:shape="cog 266 359 7.333 14.667 22 0.375 8 1@b5209652"/>
</svg>