<?xml version="1.0" encoding="utf-8"?>
<svg viewBox="376.6025695800781 133.81410026550293 153.04489135742188 100.96154022216797" xmlns="http://www.w3.org/2000/svg" xmlns:bx="https://boxy-svg.com">
  <path d="M 449.199 158.654 H 459.455 V 178.205 H 479.968 V 187.981 H 459.455 V 207.532 H 449.199 V 187.981 H 428.686 V 178.205 H 449.199 Z" style="fill: rgb(216, 216, 216);" bx:shape="cross 428.686 158.654 51.282 48.878 9.776 10.256 0.5 1@539123df"/>
  <path d="M 525.962 198.718 H 526.122 V 199.038 H 526.442 V 199.199 H 526.122 V 199.519 H 525.962 V 199.199 H 525.641 V 199.038 H 525.962 Z" style="fill: rgb(216, 216, 216);" transform="matrix(1.000038, 0, 0, 1, -46.494416, 8.814102)" bx:shape="cross 525.641 198.718 0.801 0.801 0.16 0.16 0.5 1@497739ef"/>
  <path d="M 593 174 m -43.72 0 a 43.72 43.72 0 1 0 87.44 0 a 43.72 43.72 0 1 0 -87.44 0 Z M 593 174 m -31.548 0 a 31.548 31.548 0 0 1 63.096 0 a 31.548 31.548 0 0 1 -63.096 0 Z" style="fill: rgb(216, 216, 216);" transform="matrix(-0.898062, 0.439866, -0.439868, -0.898062, 1062.764694, 77.657195)" bx:shape="ring 593 174 31.548 31.548 43.72 43.72 1@bde312b3"/>
  <path d="M 450.944 158.35 H 460.568 V 176.696 H 479.816 V 185.869 H 460.568 V 204.215 H 450.944 V 185.869 H 431.695 V 176.696 H 450.944 Z" style="fill: rgb(27, 139, 13);" bx:shape="cross 431.695 158.35 48.121 45.865 9.173 9.624 0.5 1@ff2fd8f3"/>
  <path d="M 479.364 204.215 H 479.514 V 204.516 H 479.815 V 204.666 H 479.514 V 204.967 H 479.364 V 204.666 H 479.063 V 204.516 H 479.364 Z" style="fill: rgb(27, 139, 13);" bx:shape="cross 479.063 204.215 0.752 0.752 0.15 0.15 0.5 1@1bed867a"/>
  <path d="M 593 174 m -41.025 0 a 41.025 41.025 0 1 0 82.05 0 a 41.025 41.025 0 1 0 -82.05 0 Z M 593 174 m -29.603 0 a 29.603 29.603 0 0 1 59.206 0 a 29.603 29.603 0 0 1 -59.206 0 Z" style="fill: rgb(27, 139, 13);" transform="matrix(-0.898064, 0.439865, -0.439868, -0.898062, 1064.272427, 75.890775)" bx:shape="ring 593 174 29.603 29.603 41.025 41.025 1@d013c186"/>
</svg>